<svg width="426" height="208" viewBox="0 0 426 208" fill="none" xmlns="http://www.w3.org/2000/svg">
<g clip-path="url(#clip0_202_9)">
<rect width="426" height="208" rx="8" fill="white"/>
<path d="M44.144 121.976C46 119.416 48.528 117.336 51.728 115.736C54.992 114.072 58.608 113.24 62.576 113.24C67.248 113.24 71.472 114.36 75.248 116.6C79.024 118.84 82 122.04 84.176 126.2C86.352 130.296 87.44 135 87.44 140.312C87.44 145.624 86.352 150.392 84.176 154.616C82 158.776 78.992 162.04 75.152 164.408C71.376 166.712 67.184 167.864 62.576 167.864C58.48 167.864 54.832 167.064 51.632 165.464C48.496 163.864 46 161.816 44.144 159.32V167H33.2V95.96H44.144V121.976ZM76.304 140.312C76.304 136.664 75.536 133.528 74 130.904C72.528 128.216 70.544 126.2 68.048 124.856C65.616 123.448 62.992 122.744 60.176 122.744C57.424 122.744 54.8 123.448 52.304 124.856C49.872 126.264 47.888 128.312 46.352 131C44.88 133.688 44.144 136.856 44.144 140.504C44.144 144.152 44.88 147.352 46.352 150.104C47.888 152.792 49.872 154.84 52.304 156.248C54.8 157.656 57.424 158.36 60.176 158.36C62.992 158.36 65.616 157.656 68.048 156.248C70.544 154.776 72.528 152.664 74 149.912C75.536 147.16 76.304 143.96 76.304 140.312ZM109.207 95.96V167H98.2625V95.96H109.207ZM171.479 114.104V167H160.535V160.76C158.807 162.936 156.535 164.664 153.719 165.944C150.967 167.16 148.023 167.768 144.887 167.768C140.727 167.768 136.983 166.904 133.655 165.176C130.391 163.448 127.799 160.888 125.879 157.496C124.023 154.104 123.095 150.008 123.095 145.208V114.104H133.943V143.576C133.943 148.312 135.127 151.96 137.495 154.52C139.863 157.016 143.095 158.264 147.191 158.264C151.287 158.264 154.519 157.016 156.887 154.52C159.319 151.96 160.535 148.312 160.535 143.576V114.104H171.479ZM234.399 139.256C234.399 141.24 234.271 143.032 234.015 144.632H193.599C193.919 148.856 195.487 152.248 198.303 154.808C201.119 157.368 204.575 158.648 208.671 158.648C214.559 158.648 218.719 156.184 221.151 151.256H232.959C231.359 156.12 228.447 160.12 224.223 163.256C220.063 166.328 214.879 167.864 208.671 167.864C203.615 167.864 199.071 166.744 195.039 164.504C191.071 162.2 187.935 159 185.631 154.904C183.391 150.744 182.271 145.944 182.271 140.504C182.271 135.064 183.359 130.296 185.535 126.2C187.775 122.04 190.879 118.84 194.847 116.6C198.879 114.36 203.487 113.24 208.671 113.24C213.663 113.24 218.111 114.328 222.015 116.504C225.919 118.68 228.959 121.752 231.135 125.72C233.311 129.624 234.399 134.136 234.399 139.256ZM222.975 135.8C222.911 131.768 221.471 128.536 218.655 126.104C215.839 123.672 212.351 122.456 208.191 122.456C204.415 122.456 201.183 123.672 198.495 126.104C195.807 128.472 194.207 131.704 193.695 135.8H222.975ZM256.113 95.96V167H245.169V95.96H256.113ZM276.049 107.096C274.065 107.096 272.401 106.424 271.057 105.08C269.713 103.736 269.041 102.072 269.041 100.088C269.041 98.104 269.713 96.44 271.057 95.096C272.401 93.752 274.065 93.08 276.049 93.08C277.969 93.08 279.601 93.752 280.945 95.096C282.289 96.44 282.961 98.104 282.961 100.088C282.961 102.072 282.289 103.736 280.945 105.08C279.601 106.424 277.969 107.096 276.049 107.096ZM281.425 114.104V167H270.481V114.104H281.425ZM322.482 113.24C326.642 113.24 330.354 114.104 333.618 115.832C336.946 117.56 339.538 120.12 341.394 123.512C343.25 126.904 344.178 131 344.178 135.8V167H333.33V137.432C333.33 132.696 332.146 129.08 329.778 126.584C327.41 124.024 324.178 122.744 320.082 122.744C315.986 122.744 312.722 124.024 310.29 126.584C307.922 129.08 306.738 132.696 306.738 137.432V167H295.794V114.104H306.738V120.152C308.53 117.976 310.802 116.28 313.554 115.064C316.37 113.848 319.346 113.24 322.482 113.24ZM379.066 140.6L403.45 167H388.666L369.082 144.248V167H358.138V95.96H369.082V137.24L388.282 114.104H403.45L379.066 140.6Z" fill="black"/>
<path d="M216.296 15.0725C219.101 18.3068 220.642 22.446 220.636 26.7273V33.0909C220.636 33.7934 221.207 34.3636 221.909 34.3636H228.273C232.554 34.3577 236.693 35.8993 239.928 38.7045C238.434 33.0254 235.459 27.8449 231.307 23.6927C227.155 19.5405 221.975 16.5657 216.296 15.0725Z" fill="#3568DC"/>
<path d="M202.818 14C206.194 14 209.431 15.3409 211.817 17.7275C214.204 20.1144 215.546 23.3521 215.546 26.7275V33.0908C215.546 34.7786 216.216 36.3974 217.409 37.5908C218.603 38.7842 220.221 39.4541 221.909 39.4541H228.272C231.648 39.4541 234.886 40.7958 237.272 43.1826C239.659 45.5694 241 48.8063 241 52.1816V78.9092C241 82.4217 238.149 85.2723 234.637 85.2725H191.363C187.851 85.2723 185 82.4217 185 78.9092V20.3633C185 16.8508 187.847 14.0002 191.363 14H202.818ZM215.728 56.4502C214.997 56.146 214.149 56.4643 213.804 57.1865C213.459 57.9088 213.744 58.7698 214.44 59.1465L214.51 59.1807L214.673 59.2617C215.485 59.6798 216.194 60.2761 216.746 61.0059C217.335 61.7841 217.728 62.6926 217.893 63.6543C218.057 64.616 217.989 65.6033 217.693 66.5332C217.398 67.4631 216.883 68.3083 216.192 68.998L208.598 76.5938C207.454 77.7374 205.903 78.3798 204.285 78.3799C202.668 78.3799 201.116 77.7374 199.973 76.5938C198.829 75.45 198.187 73.8987 198.187 72.2812C198.187 70.6638 198.829 69.1125 199.973 67.9688L202.938 65.0029C203.522 64.4187 203.522 63.4719 202.938 62.8877C202.353 62.3038 201.406 62.3037 200.822 62.8877L197.857 65.8535C196.153 67.5583 195.194 69.8703 195.194 72.2812C195.194 74.6922 196.153 77.0042 197.857 78.709C199.562 80.4137 201.874 81.3721 204.285 81.3721C206.696 81.372 209.008 80.4137 210.713 78.709L218.308 71.1143C219.336 70.0861 220.104 68.8264 220.545 67.4404C220.986 66.0542 221.088 64.5822 220.842 63.1484C220.596 61.7148 220.009 60.3613 219.132 59.2012C218.282 58.0773 217.182 57.1666 215.921 56.541L215.799 56.4814L215.728 56.4502ZM222.006 45.4697C219.595 45.4697 217.283 46.428 215.578 48.1328L207.983 55.7266C206.954 56.7548 206.187 58.0152 205.746 59.4014C205.305 60.7875 205.203 62.2597 205.449 63.6934C205.695 65.1269 206.282 66.4806 207.159 67.6406C208.037 68.8007 209.18 69.7336 210.492 70.3604C211.238 70.7163 212.131 70.4007 212.487 69.6553C212.843 68.9097 212.527 68.0161 211.781 67.6602C210.901 67.2397 210.134 66.6142 209.545 65.8359C208.956 65.0577 208.563 64.1493 208.398 63.1875C208.234 62.2257 208.302 61.2385 208.598 60.3086C208.893 59.3786 209.408 58.5326 210.099 57.8428L217.693 50.248C218.837 49.1043 220.388 48.4619 222.006 48.4619C223.623 48.4619 225.175 49.1043 226.318 50.248C227.462 51.3918 228.104 52.9431 228.104 54.5605C228.104 56.178 227.462 57.7294 226.318 58.873L223.353 61.8379C222.769 62.4221 222.768 63.37 223.353 63.9541C223.937 64.5382 224.885 64.5381 225.469 63.9541L228.434 60.9883C230.138 59.2835 231.097 56.9714 231.097 54.5605C231.097 52.1496 230.138 49.8376 228.434 48.1328C226.729 46.428 224.417 45.4697 222.006 45.4697Z" fill="#3568DC"/>
</g>
<defs>
<clipPath id="clip0_202_9">
<rect width="426" height="208" fill="white"/>
</clipPath>
</defs>
</svg>
